<svg width="27" height="27" viewBox="0 0 27 27" fill="none" xmlns="http://www.w3.org/2000/svg">
<path d="M13.5 5.625C13.9476 5.625 14.3768 5.44721 14.6932 5.13074C15.0097 4.81428 15.1875 4.38505 15.1875 3.9375C15.1875 3.48995 15.0097 3.06073 14.6932 2.74426C14.3768 2.42779 13.9476 2.25 13.5 2.25C13.0524 2.25 12.6232 2.42779 12.3068 2.74426C11.9903 3.06073 11.8125 3.48995 11.8125 3.9375C11.8125 4.38505 11.9903 4.81428 12.3068 5.13074C12.6232 5.44721 13.0524 5.625 13.5 5.625ZM13.5 5.625V9M10.125 13.5V14.625M16.875 13.5V14.625M12.375 9H14.625C16.0328 9 17.1293 9 18 9.08568C18.659 8.83255 19.0845 8.80454 19.6875 8.4375C20.4836 7.95295 21.375 6.75 21.375 6.75V15.75C21.375 18.9315 21.375 20.5234 20.3861 21.5111C19.3984 22.5 17.8065 22.5 14.625 22.5H13.5C13.5 22.5 12.9375 24.75 9 24.75C9 24.75 10.125 23.6149 10.125 22.4809C8.37787 22.428 7.335 22.2334 6.61388 21.5111C5.625 20.5234 5.625 18.9315 5.625 15.75V6.75C5.625 6.75 6.0342 7.9401 6.61388 8.4375C7.19509 8.93623 8.4375 9.15885 8.4375 9.15885C9.3858 9 10.6455 9 12.375 9Z" stroke="black" stroke-width="1.5" stroke-linecap="round" stroke-linejoin="round"/>
<path d="M10.6876 18.5625C10.6876 18.5625 10.9392 19.1187 11.8125 19.125C13.4351 19.1366 13.5 16.875 13.5 16.875M16.3126 18.5625C16.3126 18.5625 16.0225 19.125 15.1875 19.125C13.5001 19.125 13.5 16.875 13.5 16.875M13.5 16.875L12.375 15.75H14.625L13.5 16.875Z" stroke="black" stroke-linecap="round" stroke-linejoin="round"/>
</svg>
